ply
format ascii 1.0
element vertex 29
property float32 x
property float32 y
property float32 z
property float32 I
end_header
-39.8657 -18.5073 -2.2290 0.8386
-39.5146 -19.2415 -2.2289 0.8386
-39.1635 -19.9759 -2.2296 0.8385
-4.3757 -2.0314 -1.6036 0.9799
-4.1996 -2.0450 -1.5527 0.9805
-4.3757 -2.0314 -1.7252 0.9797
-4.1996 -2.0450 -1.6704 0.9804
-4.0344 -2.0578 -1.6196 0.9809
-3.8788 -2.0698 -1.5722 0.9815
-4.3757 -2.0314 -1.8487 0.9795
-3.8788 -2.0698 -1.6848 0.9813
-4.3757 -2.0314 -1.9744 0.9794
-4.1996 -2.0450 -1.9118 0.9800
-3.8788 -2.0698 -1.7994 0.9812
-4.1996 -2.0450 -2.0357 0.9798
-4.0344 -2.0578 -1.9738 0.9804
-3.8788 -2.0698 -1.9161 0.9810
-4.1996 -2.0450 -2.1622 0.9796
-4.0344 -2.0578 -2.0963 0.9802
-4.3757 -2.0314 -2.3664 0.9787
-4.1996 -2.0450 -2.2913 0.9794
-3.8788 -2.0698 -2.1566 0.9806
-4.1996 -2.0450 -2.4233 0.9792
-4.0344 -2.0578 -2.3495 0.9798
-4.2131 -1.9559 -2.5441 0.9790
-4.1762 -2.0336 -2.5441 0.9790
-3.8788 -2.0698 -2.4080 0.9801
-3.9968 -1.8555 -2.5441 0.9799
-3.9617 -1.9291 -2.5441 0.9799
